<svg xmlns="http://www.w3.org/2000/svg" width="24" height="24" fill="none" viewBox="0 0 24 24"><path fill="#0E121B" d="m8.501 6.317 3.858 9.928c.147.39.316.653.506.79.2.137.384.21.553.221v.317a11.037 11.037 0 0 0-.901-.032c-.337-.01-.68-.016-1.028-.016-.442 0-.853.006-1.233.016-.38 0-.685.01-.917.032v-.317c.538-.02.875-.11 1.012-.268.148-.169.116-.522-.095-1.06L7.411 8.245l.253-.284-2.625 6.86c-.19.475-.305.87-.347 1.187-.032.316-.006.563.079.743.094.179.253.305.474.379.221.074.495.116.822.126v.317a14.481 14.481 0 0 0-.964-.032 27.21 27.21 0 0 0-.902-.016c-.252 0-.48.006-.68.016-.189 0-.363.01-.521.032v-.317c.221-.052.443-.184.664-.395.221-.21.432-.569.632-1.075l3.668-9.47h.537Zm1.66 6.703v.316h-4.71l.157-.316h4.553ZM15.72 17.683c-.443 0-.822-.084-1.138-.253a1.679 1.679 0 0 1-.712-.695 2.11 2.11 0 0 1-.237-1.012c0-.464.106-.838.316-1.122.211-.296.48-.533.806-.712.338-.179.69-.327 1.06-.442.38-.127.732-.243 1.059-.348.337-.116.611-.248.822-.396.221-.147.332-.342.332-.584v-1.075c0-.38-.063-.68-.19-.902a1.006 1.006 0 0 0-.49-.49 1.689 1.689 0 0 0-.727-.142c-.242 0-.5.037-.775.11-.274.064-.49.196-.648.396.232.063.422.19.57.38a.99.99 0 0 1 .236.68c0 .294-.1.526-.3.695-.19.168-.432.253-.727.253-.327 0-.57-.1-.727-.3a1.18 1.18 0 0 1-.238-.728c0-.284.069-.516.206-.696.148-.179.337-.347.57-.505.252-.169.573-.311.963-.427.4-.116.844-.174 1.328-.174.454 0 .843.053 1.17.158.338.095.617.253.838.474.264.243.438.548.522.917.084.358.126.796.126 1.312v4.364c0 .263.032.453.095.569.074.105.19.158.348.158a.61.61 0 0 0 .3-.08 2.32 2.32 0 0 0 .364-.236l.158.268c-.221.18-.448.322-.68.427-.221.106-.506.158-.854.158-.337 0-.61-.052-.822-.158a1.052 1.052 0 0 1-.474-.458 1.73 1.73 0 0 1-.142-.743c-.274.442-.6.78-.98 1.011-.38.232-.822.348-1.328.348Zm.759-.759c.295 0 .569-.084.822-.252.263-.17.506-.422.727-.76v-3.145a1.502 1.502 0 0 1-.506.442c-.221.116-.458.238-.711.364a5.162 5.162 0 0 0-.728.443 1.956 1.956 0 0 0-.553.616c-.147.253-.221.575-.221.965 0 .41.105.737.316.98.21.231.495.347.854.347Z"/></svg>