<svg xmlns="http://www.w3.org/2000/svg" width="24" height="24" fill="none" viewBox="0 0 24 24"><path fill="#0E121B" d="M4.808 17.55H3L7.062 6.263H9.03l4.063 11.289h-1.808L8.093 8.312h-.088l-3.197 9.239Zm.303-4.42h5.865v1.433H5.111V13.13ZM16.822 17.738c-.537 0-1.022-.1-1.455-.297a2.452 2.452 0 0 1-1.031-.877c-.25-.382-.375-.85-.375-1.405 0-.478.092-.872.276-1.18.183-.309.431-.553.744-.733a3.89 3.89 0 0 1 1.047-.408c.386-.092.78-.162 1.18-.21l1.234-.143c.316-.04.546-.105.69-.193.143-.088.214-.231.214-.43v-.038c0-.482-.136-.855-.407-1.12-.269-.264-.67-.396-1.202-.396-.555 0-.992.123-1.312.37-.316.242-.535.512-.656.81l-1.549-.353c.184-.515.452-.93.805-1.246.356-.32.766-.551 1.229-.695a4.8 4.8 0 0 1 1.46-.22c.339 0 .697.04 1.076.121.382.077.738.22 1.069.43.334.21.608.509.821.899.213.385.32.887.32 1.504v5.623h-1.61v-1.158h-.066a2.346 2.346 0 0 1-.48.629 2.548 2.548 0 0 1-.82.512c-.335.136-.736.204-1.202.204Zm.358-1.323c.456 0 .845-.09 1.169-.27a1.89 1.89 0 0 0 .744-.705 1.83 1.83 0 0 0 .259-.943v-1.091c-.059.058-.173.114-.342.165-.165.048-.355.09-.568.127-.213.033-.42.064-.622.093-.203.026-.372.048-.508.067-.32.04-.611.108-.876.204-.261.095-.47.233-.629.413-.154.176-.231.412-.231.706 0 .407.15.716.452.926.301.205.685.308 1.152.308Z"/></svg>