<svg xmlns="http://www.w3.org/2000/svg" width="24" height="24" fill="none" viewBox="0 0 24 24"><path fill="#0E121B" d="m3 17.365 3.605-10.93H8.54l3.604 10.93h-1.769l-1.769-5.957-.534-1.803-.5-1.835h-.067a56.224 56.224 0 0 1-.5 1.835c-.168.601-.34 1.202-.518 1.803l-1.786 5.957H3Zm2.02-3.137v-1.319h5.072v1.319H5.02ZM16.344 17.566c-.523 0-.996-.095-1.418-.284-.412-.2-.74-.473-.985-.818-.234-.356-.35-.773-.35-1.251 0-.913.445-1.608 1.335-2.086.9-.479 2.375-.796 4.422-.952a2.116 2.116 0 0 0-.234-.918 1.418 1.418 0 0 0-.65-.65c-.29-.167-.674-.25-1.152-.25-.334 0-.662.044-.985.133-.322.078-.634.189-.934.333-.3.145-.584.295-.851.451l-.618-1.118c.3-.178.646-.356 1.035-.534.39-.19.807-.34 1.252-.45a5.825 5.825 0 0 1 1.385-.168c.756 0 1.385.14 1.886.418.5.278.878.673 1.134 1.184.256.512.384 1.13.384 1.853v4.906h-1.352l-.133-1.051h-.05a7.91 7.91 0 0 1-1.469.884 3.999 3.999 0 0 1-1.652.367Zm.467-1.319a3.12 3.12 0 0 0 1.285-.284c.423-.189.84-.456 1.252-.8v-1.936c-1.068.078-1.908.2-2.52.367-.6.167-1.023.378-1.268.634a1.186 1.186 0 0 0-.367.868c0 .267.072.49.217.667.155.167.356.29.6.367.245.078.512.117.801.117Z"/></svg>