<svg width="24" height="24" viewBox="0 0 24 24" fill="none" xmlns="http://www.w3.org/2000/svg">
<path fill-rule="evenodd" clip-rule="evenodd" d="M5.65775 6.3478C5.92811 6.07743 6.36646 6.07742 6.63682 6.34778L7.51281 7.22375C7.78317 7.49411 7.78318 7.93245 7.51282 8.20282C7.24246 8.47319 6.80412 8.47319 6.53375 8.20283L5.65777 7.32687C5.3874 7.05651 5.38739 6.61816 5.65775 6.3478ZM7.51267 15.794C7.78312 16.0643 7.78324 16.5026 7.51295 16.7731L5.92417 18.3627C5.65388 18.6332 5.21553 18.6333 4.9451 18.363C4.67466 18.0927 4.67454 17.6545 4.94482 17.384L6.5336 15.7943C6.80389 15.5238 7.24224 15.5237 7.51267 15.794ZM15.1052 15.794C15.3756 15.5237 15.8139 15.5238 16.0842 15.7943L17.673 17.384C17.9433 17.6545 17.9432 18.0927 17.6727 18.363C17.4023 18.6333 16.964 18.6332 16.6937 18.3627L15.1049 16.7731C14.8346 16.5026 14.8347 16.0643 15.1052 15.794Z" fill="#2B303B"/>
<path fill-rule="evenodd" clip-rule="evenodd" d="M11.308 4.5835C11.6904 4.5835 12.0003 4.89346 12.0003 5.2758V5.93838C12.0003 6.32073 11.6904 6.63069 11.308 6.63069C10.9257 6.63069 10.6157 6.32073 10.6157 5.93838V5.2758C10.6157 4.89346 10.9257 4.5835 11.308 4.5835ZM2.82373 11.9989C2.82373 11.6166 3.13369 11.3066 3.51604 11.3066H5.24746C5.62981 11.3066 5.93977 11.6166 5.93977 11.9989C5.93977 12.3812 5.62981 12.6912 5.24746 12.6912H3.51604C3.13369 12.6912 2.82373 12.3812 2.82373 11.9989ZM16.6764 11.9989C16.6764 11.6166 16.9862 11.3066 17.3687 11.3066H19.6157C19.998 11.3066 20.308 11.6166 20.308 11.9989C20.308 12.3812 19.998 12.6912 19.6157 12.6912H17.3687C16.9862 12.6912 16.6764 12.3812 16.6764 11.9989ZM11.308 17.3672C11.6904 17.3672 12.0003 17.6772 12.0003 18.0596V20.3067C12.0003 20.689 11.6904 20.999 11.308 20.999C10.9257 20.999 10.6157 20.689 10.6157 20.3067V18.0596C10.6157 17.6772 10.9257 17.3672 11.308 17.3672Z" fill="#2B303B"/>
</svg>
